<?xml version="1.0" encoding="UTF-8"?>
<svg id="Camada_2" data-name="Camada 2" xmlns="http://www.w3.org/2000/svg" viewBox="0 0 446.28 117.11">
  <g id="Camada_1-2" data-name="Camada 1">
    <path d="M293.95,104.21v11.76c-.01.59.46,1.07,1.06,1.07h8.92c.59.01,1.07-.47,1.07-1.06v-11.76c.01-.59.49-1.07,1.08-1.07h11.89c.59.01,1.07-.46,1.07-1.06v-8.92c.01-.59-.47-1.07-1.06-1.07h-11.89c-.59-.01-1.07-.49-1.07-1.08v-11.49c.01-.59-.47-1.07-1.06-1.07h-8.92c-.59-.01-1.07.47-1.07,1.06v11.49c-.01.59-.49,1.07-1.08,1.07h-11.35c-.59-.01-1.07.47-1.07,1.06v8.92c-.01.59.47,1.07,1.06,1.07h11.35c.59.01,1.07.49,1.07,1.08Z"/>
    <path d="M0,74.8V0h23.4l7.21,15.57,5.02,12.64h.52l-.32-13.06V0h19.32v74.8h-21.73l-8.15-17.03-5.85-14.31h-.42l.32,15.78v15.57H0Z"/>
    <path d="M60.8,74.8V0h46.07v15.98h-21.41v12.43h18.49v15.46h-18.49v14.94h21.41v15.98h-46.07Z"/>
    <path d="M119.61,74.8L108.22,0h25.7l2.2,16.92,2.3,19.96h.52l2.41-19.85L143.74,0h22.25l2.4,17.34,2.4,19.53h.52l1.98-19.53,2.3-17.34h18.8l-11.28,74.8h-26.22l-2.61-17.97-2.72-18.91h-.42l-2.72,18.8-2.61,18.07h-26.22Z"/>
    <path d="M208.87,74.8c-2.16,0-3.93-.82-5.33-2.45s-2.09-3.67-2.09-6.11V8.56c0-2.44.7-4.47,2.09-6.11C204.94.82,206.71,0,208.87,0h41.58C252.61,0,254.38.82,255.78,2.45c1.39,1.64,2.09,3.68,2.09,6.11v18.07h-24.23v-9.61c0-1.32-.35-2.27-1.04-2.82-.7-.56-1.71-.84-3.03-.84s-2.23.28-2.93.84-1.04,1.5-1.04,2.82v40.74c0,1.32.36,2.27,1.09,2.82s1.73.84,2.98.84,2.23-.28,2.93-.84c.7-.56,1.04-1.5,1.04-2.82v-12.22h-5.22v-14.1h29.46v43.35h-19.64v-7.52h-.84c-.21,2.16-1.03,3.95-2.45,5.38s-3.22,2.14-5.38,2.14h-20.69Z"/>
    <path d="M284.4,47.32h7.31l-3.34-23.61h-.52l-3.45,23.61h0ZM259.64,74.8L273.74,0h34.16l13.79,74.8h-25.7l-2.2-13.58h-11.49l-2.3,13.58h-20.37,0Z"/>
    <path d="M323.78,74.8V0h27.68l8.67,22.88h.63L369.32,0h24.45v74.8h-24.34l-.11-14,.31-18.7h-.63l-11.7,28.52h-2.09l-11.6-28.62h-.63l.31,18.7-.11,14.1h-19.43.01Z"/>
    <path d="M399.42,74.8V0h46.07v15.98h-21.41v12.43h18.49v15.46h-18.49v14.94h21.41v15.98h-46.07Z"/>
    <g>
      <path d="M340.63,103.2c.95,0,1.7-.16,2.25-.5.55-.33.82-.84.82-1.53v-6.74c0-.72-.27-1.24-.82-1.58-.55-.33-1.29-.5-2.25-.5s-1.7.16-2.25.47-.82.83-.82,1.55v6.74c0,.69.27,1.21.82,1.55.55.35,1.29.52,2.25.52h0ZM323.78,117.11v-30.95h13.79v4.45h.43c0-1.27.38-2.33,1.14-3.18.76-.85,1.75-1.28,2.96-1.28h11.19c1.21,0,2.21.42,3,1.28.79.85,1.19,1.91,1.19,3.18v14.31c0,1.27-.4,2.33-1.19,3.18-.8.85-1.79,1.28-3,1.28h-11.19c-1.18,0-2.16-.42-2.94-1.28-.78-.85-1.17-1.91-1.17-3.18h-.43v12.19h-13.79,0Z"/>
      <rect x="360.21" y="78.43" width="14.09" height="30.95"/>
      <path d="M381.35,109.38c-1.21,0-2.2-.42-2.98-1.28s-1.17-1.91-1.17-3.18v-18.76h13.83v14.91c0,.69.26,1.21.78,1.56s1.22.52,2.11.52,1.64-.16,2.16-.5c.52-.33.78-.85.78-1.53v-14.95h13.83v23.21h-13.83v-4.45h-.43c0,1.27-.39,2.33-1.17,3.18s-1.77,1.28-2.98,1.28h-10.93Z"/>
      <path d="M417.44,109.38c-1.21,0-2.21-.42-3-1.28s-1.19-1.91-1.19-3.18v-2.64h13.7v.65c0,.55.21.98.65,1.29.43.32,1.17.47,2.2.47s1.73-.16,2.16-.5c.43-.33.65-.76.65-1.28,0-.46-.15-.83-.45-1.12-.3-.29-.86-.45-1.67-.47l-13.31-.61c-1.16-.06-2.09-.47-2.81-1.26-.72-.78-1.08-1.79-1.08-3.02v-5.83c0-1.27.4-2.33,1.19-3.18.79-.85,1.79-1.28,3-1.28h24.64c1.21,0,2.2.42,2.99,1.28.78.85,1.17,1.91,1.17,3.18v2.64h-13.62v-.65c0-.55-.21-.98-.62-1.29s-1.14-.47-2.18-.47-1.77.16-2.18.5c-.42.33-.62.76-.62,1.28,0,.46.15.84.45,1.12.3.29.86.45,1.67.47l13.1.61c1.24.03,2.22.44,2.94,1.23.72.8,1.08,1.79,1.08,3v5.88c0,1.27-.39,2.33-1.17,3.18-.78.85-1.77,1.28-2.99,1.28h-24.69Z"/>
    </g>
  </g>
</svg>