<?xml version="1.0" encoding="UTF-8"?>
<svg id="Camada_2" data-name="Camada 2" xmlns="http://www.w3.org/2000/svg" viewBox="0 0 236.42 97.7">
  <g id="Camada_1-2" data-name="Camada 1">
    <path d="M0,97.7V0h30.56l9.41,20.33,6.55,16.51h.68l-.41-17.06V0h25.24v97.7h-28.38l-10.64-22.24-7.64-18.69h-.54l.41,20.61v20.33H0Z"/>
    <path d="M89.03,97.7c-2.82,0-5.14-1.07-6.96-3.2s-2.73-4.79-2.73-7.98V11.19c0-3.18.91-5.84,2.73-7.98C83.89,1.07,86.21,0,89.03,0h54.31C146.16,0,148.48,1.07,150.3,3.2c1.82,2.14,2.73,4.8,2.73,7.98v23.6h-31.65v-12.55c0-1.73-.46-2.96-1.36-3.69-.91-.73-2.23-1.09-3.96-1.09s-2.91.37-3.82,1.09-1.36,1.96-1.36,3.69v53.22c0,1.73.47,2.96,1.43,3.69s2.26,1.09,3.89,1.09,2.91-.36,3.82-1.09c.91-.73,1.36-1.96,1.36-3.69v-15.96h-6.82v-18.42h38.48v56.63h-25.65v-9.82h-1.09c-.28,2.82-1.35,5.16-3.2,7.03-1.86,1.87-4.21,2.8-7.03,2.8h-27.03Z"/>
    <path d="M191.87,60.31l-.02,20.86c0,1.05.85,1.9,1.9,1.9l15.83.02c1.05,0,1.9-.85,1.9-1.9l.02-20.86c0-1.05.85-1.9,1.9-1.9l21.1.02c1.05,0,1.9-.85,1.9-1.9l.02-15.83c0-1.05-.85-1.9-1.9-1.9l-21.1-.02c-1.05,0-1.9-.85-1.9-1.9l.02-20.38c0-1.05-.85-1.9-1.9-1.9l-15.83-.02c-1.05,0-1.9.85-1.9,1.9l-.02,20.38c0,1.05-.85,1.9-1.9,1.9l-20.14-.02c-1.05,0-1.9.85-1.9,1.9l-.02,15.83c0,1.05.85,1.9,1.9,1.9l20.14.02c1.05,0,1.9.85,1.9,1.9Z"/>
  </g>
</svg>